<?xml version="1.0" encoding="iso-8859-1"?>
<!-- Uploaded to: SVG Repo, www.svgrepo.com, Generator: SVG Repo Mixer Tools -->
<svg fill="#000000" height="800px" width="800px" version="1.1" id="Layer_1" xmlns="http://www.w3.org/2000/svg" xmlns:xlink="http://www.w3.org/1999/xlink" 
	 viewBox="0 0 512 512" xml:space="preserve">
<g>
	<g>
		<g>
			<path d="M482.563,208.916c0-33.803-21.442-63.968-53.354-75.06c-10.327-3.59-17.267-13.579-17.267-24.856v-1.891
				c0-4.876-3.951-8.828-8.828-8.828s-8.828,3.951-8.828,8.828v1.89c0,18.786,11.704,35.477,29.124,41.532
				c24.821,8.629,41.497,32.092,41.497,58.385l0.012,276.602c0,4.868-3.959,8.828-8.828,8.828H279.54
				c-4.868,0-8.828-3.958-8.828-8.825l-0.008-276.601c0-26.294,16.676-49.757,41.497-58.385
				c17.42-6.056,29.124-22.746,29.124-41.533V76.509h61.801c4.876,0,8.828-3.951,8.828-8.828V8.828c0-4.876-3.951-8.828-8.828-8.828
				h-70.621c-4.876,0-8.828,3.951-8.828,8.828v58.692c-0.001,0.054-0.008,41.48-0.008,41.48c0,11.278-6.94,21.267-17.266,24.857
				c-31.914,11.092-53.355,41.258-53.355,75.06l0.008,276.602c0,14.601,11.881,26.48,26.483,26.48h176.552
				c14.602,0,26.483-11.881,26.483-26.483L482.563,208.916z M341.333,17.655h52.966v41.199h-52.966V17.655z"/>
			<path d="M300.138,220.69v117.701c0,4.876,3.951,8.828,8.828,8.828h117.701c4.876,0,8.828-3.951,8.828-8.828V220.69
				c0-4.876-3.951-8.828-8.828-8.828H308.966C304.089,211.862,300.138,215.813,300.138,220.69z M317.793,229.517h100.046v100.046
				H317.793V229.517z"/>
			<path d="M203.034,211.862H38.253c-4.876,0-8.828,3.951-8.828,8.828v82.391c0,41.089,27.315,75.909,64.737,87.285l-0.001,77.497
				c0,14.602-11.881,26.483-26.483,26.483c-4.876,0-8.828,3.951-8.828,8.828c0,4.876,3.951,8.828,8.828,8.828h105.931
				c4.876,0,8.828-3.951,8.828-8.828c0-4.876-3.951-8.828-8.828-8.828c-7.082,0-13.735-2.753-18.732-7.751
				c-4.998-4.998-7.749-11.65-7.749-18.732v-77.497c37.421-11.377,64.734-46.195,64.734-87.285V220.69
				C211.862,215.813,207.911,211.862,203.034,211.862z M102.967,494.345c5.553-7.381,8.849-16.555,8.85-26.483v-73.997
				c2.906,0.28,14.748,0.28,17.655,0l-0.001,73.997c0,9.928,3.296,19.102,8.849,26.483H102.967z M194.207,303.08
				c0,40.563-33,73.563-73.563,73.563s-73.563-33-73.563-73.563v-26.483h120.644c4.876,0,8.828-3.951,8.828-8.828
				c0-4.876-3.951-8.828-8.828-8.828H47.08v-29.425h147.126V303.08z"/>
		</g>
	</g>
</g>
</svg>